# xmcd CD database file
#
# Track frame offsets:
#	182
#	13227
#	26967
#	40422
#	54375
#	68452
#	81285
#	93650
#	106620
#	121110
#	134200
#	145917
#	161432
#	174140
#	184765
#	196797
#	210032
#	224467
#	235365
#	248450
#	262862
#	273840
#
# Disc length: 3837 seconds
#
# Revision: 0
# Processed by: cddbd v1.4PL0 Copyright (c) Steve Scherf et al.
# Submitted via: CDex 1.50
#
DISCID=280efb16
DTITLE=Ink Spots - Swing High, Swing Low
DYEAR=1900
DGENRE=Jazz
TTITLE0=Bless You
TTITLE1=Java Jive
TTITLE2=When the Swallows Come Back to Capistrano
TTITLE3=If I Didn't Care
TTITLE4=Maybe
TTITLE5=Your Feet's Too big
TTITLE6=Whispering Grass
TTITLE7=Stompin' at the Savoy
TTITLE8=My Prayer
TTITLE9=Keep Away From My Doorstep
TTITLE10=Let's Call the Whole Thing Off
TTITLE11=I'll Never Smile Again
TTITLE12=I'm Getting Sentimental Over You
TTITLE13=Stop Pretending
TTITLE14=Swing high, Swing Low
TTITLE15=That Cat is High
TTITLE16=When the Sun Goes Down
TTITLE17=Yes Suh
TTITLE18=With Plenty of Money and You
TTITLE19=Oh! Red
TTITLE20=Slap That Bass
TTITLE21=Christopher Columbus
EXTD=
EXTT0=
EXTT1=
EXTT2=
EXTT3=
EXTT4=
EXTT5=
EXTT6=
EXTT7=
EXTT8=
EXTT9=
EXTT10=
EXTT11=
EXTT12=
EXTT13=
EXTT14=
EXTT15=
EXTT16=
EXTT17=
EXTT18=
EXTT19=
EXTT20=
EXTT21=
PLAYORDER=
